<?xml version="1.0" encoding="UTF-8" standalone="no"?>
<!DOCTYPE svg PUBLIC "-//W3C//DTD SVG 1.1//EN" "http://www.w3.org/Graphics/SVG/1.1/DTD/svg11.dtd">
<svg width="100%" height="100%" viewBox="0 0 467 133" version="1.1" xmlns="http://www.w3.org/2000/svg" xmlns:xlink="http://www.w3.org/1999/xlink" xml:space="preserve" xmlns:serif="http://www.serif.com/" style="fill-rule:evenodd;clip-rule:evenodd;stroke-linejoin:round;stroke-miterlimit:2;">
    <path d="M21.8,125.799L0.8,125.799L19.5,29.699L59.8,29.699C71.9,29.699 80.8,32.899 86.3,39.199C91.9,45.599 93.5,54.399 91.3,65.899C90.4,70.599 88.8,74.899 86.7,78.799C84.5,82.699 81.7,86.299 78.2,89.499C74,93.399 69.4,96.199 64.3,97.899C59.2,99.599 52.7,100.399 44.7,100.399L26.7,100.399L21.8,125.799ZM67.7,49.199C65,46.299 59.7,44.799 51.8,44.799L37.5,44.799L29.7,85.099L42.4,85.099C50.8,85.099 57.1,83.499 61.3,80.299C65.4,77.099 68.2,71.799 69.7,64.399C71,57.199 70.3,52.199 67.7,49.199Z" style="fill:white;"/>
    <path d="M106.6,4.1L127.4,4.1L122.4,29.7L140.9,29.7C152.6,29.7 160.6,31.7 165,35.8C169.4,39.9 170.8,46.5 169,55.6L160.3,100.4L139.2,100.4L147.5,57.8C148.4,53 148.1,49.7 146.5,47.9C144.9,46.1 141.4,45.3 136.1,45.3L119.5,45.3L108.8,100.4L87.9,100.4L106.6,4.1Z" style="fill:white;fill-rule:nonzero;"/>
    <path d="M185.2,125.799L164.2,125.799L182.9,29.699L223.3,29.699C235.4,29.699 244.3,32.899 249.8,39.199C255.4,45.599 257,54.399 254.8,65.899C253.9,70.599 252.3,74.899 250.2,78.799C248,82.699 245.2,86.299 241.7,89.499C237.5,93.399 232.9,96.199 227.8,97.899C222.7,99.599 216.2,100.399 208.2,100.399L190.2,100.399L185.2,125.799ZM231.2,49.199C228.5,46.299 223.2,44.799 215.3,44.799L200.9,44.799L193.1,85.099L205.8,85.099C214.2,85.099 220.5,83.499 224.7,80.299C228.8,77.099 231.6,71.799 233.1,64.399C234.4,57.199 233.8,52.199 231.2,49.199Z" style="fill:white;"/>
    <path d="M317.5,48.5C311.8,34.9 307,23.1 311.7,14.9C313.5,12.4 315.5,11.1 317.7,11.1C322.2,11.1 326.3,16 326.3,16L332,22.9L328.4,14.7C328.2,14.4 322.1,0.5 311.2,0.5C307.4,0.5 303.4,2.2 299.5,5.6L299.4,5.7C289.9,16.7 299.2,37.5 307.5,55.8L313.6,70C316.4,77.3 319.2,86 317.5,92.4C314.9,102.4 306,109.2 305.9,109.3L300.2,113.7L307.1,111.5C307.8,111.3 323.1,106.3 326.8,93C329.1,82.1 326.2,71.2 323.3,62.8C323.7,62.5 322.9,63.1 323.3,62.8L318,49.1" style="fill:white;fill-rule:nonzero;"/>
    <path d="M334.4,9.9L327.3,2.1L332.4,11.4C332.5,11.5 338.7,23.1 330.8,36.6C327.9,40.8 323.4,45 317.7,49.2L307.4,55.9C307.3,55.8 307.3,55.7 307.4,55.9L307,56.2C295.5,62.8 284.8,66.8 284.6,66.9C268.7,74 258.7,85 257.3,97.2C256.2,106.4 260.5,115.4 268.9,121.7L269,121.8C274.3,125 280,126.6 286,126.6C301.7,126.6 314,115.7 314.5,115.2L322.2,108.3L313.1,113.1C313,113.1 305.4,117.1 297.5,117.1C290.4,117.1 285.4,114 282.4,107.7C278.6,94.3 291.9,85.1 307.2,74.5C309.2,73.1 311.3,71.6 313.4,70.2L313.5,70.1L322.6,63.3C322.7,63.1 323,62.9 323,62.9C330.5,56.7 340.4,47 342.7,33.4C344.5,21.1 334.8,10.4 334.4,9.9Z" style="fill:rgb(62,58,109);fill-rule:nonzero;"/>
    <path d="M345.4,83L364.9,83L361.4,100.7L341.9,100.7L345.4,83Z" style="fill:white;fill-rule:nonzero;"/>
    <path d="M375.68,86.24L417.44,86.24C419.28,86.32 421.04,86.2 422.72,85.88C424.4,85.48 425.96,84.92 427.4,84.2C428.76,83.48 429.96,82.4 431,80.96C432.04,79.52 432.84,77.72 433.4,75.56C434.04,73.4 434.2,71.6 433.88,70.16C433.64,68.72 433.04,67.64 432.08,66.92C431.04,66.2 429.76,65.68 428.24,65.36C426.8,64.96 425.12,64.76 423.2,64.76L381.56,64.64L394.88,14.84L466.52,14.84L462.56,29.6L410,29.6L404.6,49.88L435.44,49.88C439.44,49.96 442.88,50.56 445.76,51.68C448.64,52.8 450.96,54.44 452.72,56.6C454.48,58.76 455.52,61.44 455.84,64.64C456.16,67.76 455.76,71.4 454.64,75.56C453.36,80.36 451.52,84.44 449.12,87.8C446.8,91.08 444,93.64 440.72,95.48C437.36,97.32 433.76,98.72 429.92,99.68C426.08,100.56 422,101 417.68,101L371.84,101L375.68,86.24Z" style="fill:white;fill-rule:nonzero;"/>
</svg>
